<svg width="128" height="128" viewBox="0 0 128 128" fill="none" xmlns="http://www.w3.org/2000/svg">
    <rect x="20" y="24" width="88" height="80" rx="8" fill="#F8FAFC" stroke="#334155" stroke-width="4"/>

    <path d="M64 24V104" stroke="#CBD5E1" stroke-width="2" stroke-linecap="round"/>

    <rect x="32" y="40" width="20" height="4" rx="2" fill="#4A9B8E"/>
    <rect x="32" y="54" width="20" height="4" rx="2" fill="#4A9B8E"/>
    <rect x="32" y="68" width="20" height="4" rx="2" fill="#4A9B8E"/>
    <rect x="32" y="82" width="14" height="4" rx="2" fill="#94A3B8"/>

    <rect x="76" y="40" width="20" height="4" rx="2" fill="#E11D48" fill-opacity="0.7"/>
    <rect x="76" y="54" width="20" height="4" rx="2" fill="#E11D48" fill-opacity="0.7"/>
    <rect x="76" y="68" width="20" height="4" rx="2" fill="#E11D48" fill-opacity="0.7"/>
    <rect x="76" y="82" width="14" height="4" rx="2" fill="#94A3B8"/>

    <path d="M20 32C20 28.6863 22.6863 26 26 26H64V102H26C22.6863 102 20 99.3137 20 96V32Z" fill="black" fill-opacity="0.03"/>
</svg>