<svg width="128" height="128" viewBox="0 0 128 128" fill="none" xmlns="http://www.w3.org/2000/svg">
  <!-- Brain / Memory — circular mint-green background -->
  <circle cx="64" cy="64" r="56" fill="#ECFDF5" stroke="#059669" stroke-width="3"/>
  <!-- Left hemisphere -->
  <path d="M64 34 C56 26 40 28 34 40 C28 52 30 62 36 70 C32 76 32 84 38 88 C44 92 50 90 54 86 C58 92 62 94 64 94 Z"
        fill="#34D399" stroke="#059669" stroke-width="2"/>
  <!-- Right hemisphere -->
  <path d="M64 34 C72 26 88 28 94 40 C100 52 98 62 92 70 C96 76 96 84 90 88 C84 92 78 90 74 86 C70 92 66 94 64 94 Z"
        fill="#10B981" stroke="#059669" stroke-width="2"/>
  <!-- Centre split -->
  <line x1="64" y1="34" x2="64" y2="94" stroke="#059669" stroke-width="2"/>
  <!-- Fold lines – left hemisphere -->
  <path d="M40 50 C46 44 52 50 48 58" stroke="#065F46" stroke-width="2" stroke-linecap="round" fill="none"/>
  <path d="M36 64 C42 58 48 64 44 72" stroke="#065F46" stroke-width="2" stroke-linecap="round" fill="none"/>
  <path d="M42 78 C48 72 54 78 50 84" stroke="#065F46" stroke-width="2" stroke-linecap="round" fill="none"/>
  <!-- Fold lines – right hemisphere -->
  <path d="M88 50 C82 44 76 50 80 58" stroke="#065F46" stroke-width="2" stroke-linecap="round" fill="none"/>
  <path d="M92 64 C86 58 80 64 84 72" stroke="#065F46" stroke-width="2" stroke-linecap="round" fill="none"/>
  <path d="M86 78 C80 72 74 78 78 84" stroke="#065F46" stroke-width="2" stroke-linecap="round" fill="none"/>
  <!-- Synapse dots -->
  <circle cx="46" cy="40" r="3" fill="#6EE7B7"/>
  <circle cx="82" cy="40" r="3" fill="#6EE7B7"/>
  <circle cx="38" cy="74" r="2.5" fill="#6EE7B7"/>
  <circle cx="90" cy="74" r="2.5" fill="#6EE7B7"/>
</svg>

