<svg width="128" height="128" viewBox="0 0 128 128" fill="none" xmlns="http://www.w3.org/2000/svg">
  <!-- Open Book — circular amber background -->
  <circle cx="64" cy="64" r="56" fill="#FEF3C7" stroke="#F59E0B" stroke-width="3"/>
  <!-- Left page -->
  <path d="M22 36 Q42 30 62 34 L62 80 Q42 76 22 80 Z" fill="#FFFDE7" stroke="#D97706" stroke-width="2"/>
  <!-- Right page -->
  <path d="M66 34 Q86 30 106 36 L106 80 Q86 76 66 80 Z" fill="#FFF8DC" stroke="#D97706" stroke-width="2"/>
  <!-- Cover base -->
  <path d="M22 80 Q64 74 106 80 L106 88 Q64 84 22 88 Z" fill="#92400E"/>
  <!-- Spine -->
  <line x1="64" y1="34" x2="64" y2="80" stroke="#B45309" stroke-width="3"/>
  <!-- Left page text lines -->
  <line x1="30" y1="44" x2="56" y2="43" stroke="#D97706" stroke-width="2" stroke-linecap="round"/>
  <line x1="30" y1="52" x2="56" y2="51" stroke="#D97706" stroke-width="2" stroke-linecap="round"/>
  <line x1="30" y1="60" x2="56" y2="59" stroke="#D97706" stroke-width="2" stroke-linecap="round"/>
  <line x1="30" y1="68" x2="50" y2="67" stroke="#FCD34D" stroke-width="2" stroke-linecap="round"/>
  <!-- Right page text lines -->
  <line x1="72" y1="43" x2="98" y2="44" stroke="#D97706" stroke-width="2" stroke-linecap="round"/>
  <line x1="72" y1="51" x2="98" y2="52" stroke="#D97706" stroke-width="2" stroke-linecap="round"/>
  <line x1="72" y1="59" x2="98" y2="60" stroke="#D97706" stroke-width="2" stroke-linecap="round"/>
  <line x1="72" y1="67" x2="92" y2="68" stroke="#FCD34D" stroke-width="2" stroke-linecap="round"/>
</svg>

