<svg width="200" height="200" viewBox="0 0 200 200" xmlns="http://www.w3.org/2000/svg">
  <!-- Congratulations - Trophy Icon -->
  <defs>
    <linearGradient id="grad1" x1="0%" y1="0%" x2="0%" y2="100%">
      <stop offset="0%" style="stop-color:#FFD700;stop-opacity:1" />
      <stop offset="100%" style="stop-color:#FFA500;stop-opacity:1" />
    </linearGradient>
  </defs>

  <!-- Trophy cup -->
  <path d="M60 70 L60 50 L140 50 L140 70 Q140 110 100 120 Q60 110 60 70"
        fill="url(#grad1)" stroke="#FF8C00" stroke-width="3"/>

  <!-- Trophy handles -->
  <path d="M60 55 Q40 55 40 75 Q40 85 50 85"
        fill="none" stroke="url(#grad1)" stroke-width="4"/>
  <path d="M140 55 Q160 55 160 75 Q160 85 150 85"
        fill="none" stroke="url(#grad1)" stroke-width="4"/>

  <!-- Trophy base -->
  <rect x="85" y="120" width="30" height="25" fill="url(#grad1)" stroke="#FF8C00" stroke-width="2"/>
  <rect x="70" y="145" width="60" height="15" rx="3" fill="url(#grad1)" stroke="#FF8C00" stroke-width="2"/>

  <!-- Star decoration -->
  <path d="M100 70 L105 85 L120 85 L108 93 L113 108 L100 98 L87 108 L92 93 L80 85 L95 85 Z"
        fill="#FFFF00" opacity="0.8"/>

  <!-- Sparkles -->
  <circle cx="50" cy="40" r="3" fill="#FFD700"/>
  <circle cx="150" cy="40" r="3" fill="#FFD700"/>
  <circle cx="30" cy="100" r="2" fill="#FFA500"/>
  <circle cx="170" cy="100" r="2" fill="#FFA500"/>
</svg>
